<?xml version="1.0" encoding="utf-8"?>
<!-- Generator: Adobe Illustrator 24.0.0, SVG Export Plug-In . SVG Version: 6.00 Build 0)  -->
<svg version="1.1" id="Calque_1" xmlns="http://www.w3.org/2000/svg" xmlns:xlink="http://www.w3.org/1999/xlink" x="0px" y="0px"
	 viewBox="0 0 1280 640" style="enable-background:new 0 0 1280 640;" xml:space="preserve">
<style type="text/css">
	.st0{fill:#FFFFFF;}
</style>
<g transform="translate(0.000000,640.000000) scale(0.100000,-0.100000)">
	<path d="M8156,3811c-25,15-50,19-133,19c-101,0-203,16-203,32c0,4,11,8,25,8c35,0,82,26,89,48c3,9-3,48-14,86l-19,68l39,57
		c97,143,91,257-21,370c-42,42-125,101-161,114c-15,5-14,9,4,46c26,52,18,103-22,143c-24,24-36,28-82,28c-35,0-64-7-85-19
		c-48-30-60-99-28-160l15-29l-46-22c-25-12-78-54-119-94c-62-61-75-79-90-129c-25-86-6-161,68-265c30-42,31-44,18-90
		c-31-109-22-137,51-148c21-4,38-10,38-13c0-16-98-31-196-31c-122,0-147-9-192-71l-31-42l39-58c22-32,50-65,61-73c19-13,24-13,45,1
		c14,9,82,23,157,33c161,22,203,33,251,65l38,26l32-21c57-35,117-51,259-70c95-12,144-23,157-35c14-13,23-14,39-6
		c19,11,101,121,101,137C8240,3731,8186,3793,8156,3811z M7684,4744c19-18,20-28,6-55c-20-37-80-18-80,26
		C7610,4757,7654,4774,7684,4744z M7592,4400c26,0,28,3,28,41c0,39,1,40,33,37c31-3,32-5,29-40c-3-37-3-38,32-38c34,0,36-2,36-34
		c0-32-3-35-32-38c-31-3-33-6-33-41s-2-37-32-37c-32,0-33,2-33,40c0,37-2,40-29,40c-24,0-29,5-33,30C7553,4396,7555,4400,7592,4400z
		 M7473,4135c10,23,345,23,354-1c3-9,0-20-8-25c-16-11-334-8-344,3C7471,4116,7470,4126,7473,4135z M7669,3983c-157-7-238,14-181,46
		c18,11,300,15,326,5c21-8,20-30-1-39C7803,3991,7738,3986,7669,3983z"/>
	<path class="st0" d="M7690,4689c-20-37-80-18-80,26c0,42,44,59,74,29C7703,4726,7704,4716,7690,4689z"/>
	<path class="st0" d="M7750,4366c0-32-3-35-32-38c-31-3-33-6-33-41s-2-37-32-37c-32,0-33,2-33,40c0,37-2,40-29,40c-24,0-29,5-33,30
		c-5,36-3,40,34,40c26,0,28,3,28,41c0,39,1,40,33,37c31-3,32-5,29-40c-3-37-3-38,32-38C7748,4400,7750,4398,7750,4366z"/>
	<path class="st0" d="M7819,4109c-16-11-334-8-344,3c-4,4-5,14-2,23c10,23,345,23,354-1C7830,4125,7827,4114,7819,4109z"/>
	<path class="st0" d="M7813,3995c-10-4-75-9-144-12c-157-7-238,14-181,46c18,11,300,15,326,5C7835,4026,7834,4004,7813,3995z"/>
	<path d="M1098,4281c-15,151-189,228-338,151l-58-30l-7,55c-6,48-12,60-51,97c-54,52-56,77-9,106c29,18,35,28,35,56c0,32-2,34-34,34
		c-29,0-34,4-42,33c-8,26-15,33-41,35c-28,3-32-1-43-32c-10-32-15-36-46-36c-32,0-34-2-34-34c0-30,5-38,40-57c22-13,40-30,40-38
		c0-8-21-37-47-63c-42-42-47-53-51-103c-2-30-6-55-9-55c-2,0-17,9-32,21c-65,48-183,55-261,14c-40-21-87-79-99-122
		c-23-82-9-130,76-260c63-95,80-141,89-246c10-110,31-135,138-163c123-33,410-26,517,11c72,26,86,46,94,134c11,112,34,176,103,280
		C1094,4168,1105,4203,1098,4281z M667,3772c-80,7-154,7-234,0c-114-10-153-5-153,19c0,18,54,31,155,38c120,9,297,2,344-13
		c19-6,36-16,38-23C826,3767,785,3762,667,3772z M875,4001c-29-19-47-23-106-23c-39,1-104,6-145,12c-52,8-95,8-147,1
		c-75-11-138-15-197-12c-29,1-45,12-95,64c-104,109-140,220-96,293c38,62,145,83,226,44c98-47,167-140,180-240c11-80,14-88,40-94
		c41-10,65,9,65,53c0,143,145,301,275,301c96,0,155-53,155-139C1030,4188,949,4052,875,4001z"/>
	<path class="st0" d="M667,3772c-80,7-154,7-234,0c-114-10-153-5-153,19c0,18,54,31,155,38c120,9,297,2,344-13c19-6,36-16,38-23
		C826,3767,785,3762,667,3772z"/>
	<path class="st0" d="M875,4400c-130,0-275-158-275-301c0-44-24-63-65-53c-26,6-29,14-40,94c-13,100-82,193-180,240
		c-81,39-188,18-226-44c-44-73-8-184,96-293c50-52,66-63,95-64c59-3,122,1,197,12c52,7,95,7,147-1c41-6,106-11,145-12
		c59,0,77,4,106,23c74,51,155,187,155,260C1030,4347,971,4400,875,4400z M452,4052c-14-20-81-32-142-25c-49,6-60,12-105,57
		c-57,57-95,127-95,173c0,39,33,80,73,92c71,20,157-15,212-85C440,4204,473,4083,452,4052z M878,4067c-46-38-49-39-123-39
		c-103,0-119,13-106,94c19,115,93,207,184,228c17,4,38,6,45,4c8-2,23-4,34-4c11,0,33-13,49-29c22-22,29-39,29-68
		C990,4202,940,4119,878,4067z"/>
	<path d="M452,4052c-14-20-81-32-142-25c-49,6-60,12-105,57c-57,57-95,127-95,173c0,39,33,80,73,92c71,20,157-15,212-85
		C440,4204,473,4083,452,4052z"/>
	<path d="M990,4253c0-51-50-134-112-186c-46-38-49-39-123-39c-103,0-119,13-106,94c19,115,93,207,184,228c17,4,38,6,45,4
		c8-2,23-4,34-4c11,0,33-13,49-29C983,4299,990,4282,990,4253z"/>
	<path d="M3487,4616c-44,21-80,13-119-27c-29-29-30-32-23-93c6-56,3-70-18-112c-14-27-41-67-61-89l-35-40l-3,60c-7,155,6,218,50,259
		c75,67-7,198-103,166c-60-20-70-41-67-141c2-77-1-101-27-179c-17-50-39-107-49-127l-19-36l-16,90c-21,113-22,227-2,283
		c22,62,19,103-10,134c-29,32-96,36-133,8c-35-27-41-68-20-135c23-73,22-173-1-292l-17-90l-23,50c-48,106-73,198-71,260
		c1,33,2,72,2,87c2,65-72,111-136,84c-42-17-57-38-63-84c-4-33-1-44,26-74c45-51,51-77,51-206l-1-117l-39,43c-62,69-84,123-76,190
		c5,47,3,63-14,90c-34,55-87,66-140,30c-62-42-59-125,5-173c28-22,33-33,39-85c4-32,20-109,35-169c25-97,35-118,79-173
		c27-35,57-78,66-96c16-31,16-35-9-103c-43-120-35-134,90-166c96-24,454-24,564,0c118,26,133,55,85,169c-15,36-23,70-20,84
		c3,12,34,57,67,100c59,74,62,81,90,196c15,66,31,143,34,172c6,43,12,54,39,71C3563,4480,3559,4582,3487,4616z M2415,4490
		c-20-17-62-5-70,20c-14,44,41,80,73,48C2435,4541,2433,4505,2415,4490z M3182,4674c27,19,30,19,52,3c12-9,17-23,14-42
		c-2-24-8-31-31-33C3163,4596,3140,4645,3182,4674z M2880,4725c15,18,51,20,68,3c17-17,15-53-3-68C2907,4629,2849,4687,2880,4725z
		 M2582,4635c-3,19,2,33,14,42c19,14,54,8,66-11c23-35,0-68-43-64C2590,4605,2585,4609,2582,4635z M3210,3796c-13-12-40-13-160-7
		c-80,5-205,5-279,0c-131-9-161-4-161,22c0,16,57,38,121,48c76,12,367,6,423-8c21-5,46-17,55-25C3222,3812,3222,3808,3210,3796z
		 M2916,4013c-310,1-326,2-326,19c0,42,109,58,365,54c135-3,213-8,240-17c28-10,41-21,43-35l3-22L2916,4013z M3480,4499
		c-20-37-80-18-80,26c0,42,44,59,74,29C3493,4536,3494,4526,3480,4499z"/>
	<path class="st0" d="M3480,4499c-20-37-80-18-80,26c0,42,44,59,74,29C3493,4536,3494,4526,3480,4499z"/>
	<path class="st0" d="M3248,4635c-2-24-8-31-31-33c-54-6-77,43-35,72c27,19,30,19,52,3C3246,4668,3251,4654,3248,4635z"/>
	<path class="st0" d="M2945,4660c-38-31-96,27-65,65c15,18,51,20,68,3C2965,4711,2963,4675,2945,4660z"/>
	<path class="st0" d="M2619,4602c-29,3-34,7-37,33c-3,19,2,33,14,42c19,14,54,8,66-11C2685,4631,2662,4598,2619,4602z"/>
	<path class="st0" d="M2415,4490c-20-17-62-5-70,20c-14,44,41,80,73,48C2435,4541,2433,4505,2415,4490z"/>
	<path class="st0" d="M3241,4012l-325,1c-310,1-326,2-326,19c0,42,109,58,365,54c135-3,213-8,240-17c28-10,41-21,43-35L3241,4012z"
		/>
	<path class="st0" d="M3210,3796c-13-12-40-13-160-7c-80,5-205,5-279,0c-131-9-161-4-161,22c0,16,57,38,121,48c76,12,367,6,423-8
		c21-5,46-17,55-25C3222,3812,3222,3808,3210,3796z"/>
	<path d="M10473,4245c-88,175-216,288-347,304c-47,6-50,8-63,48c-14,42-62,93-88,93c-8,0-28-18-45-39l-32-39l-54,25
		c-30,14-76,26-101,26l-46,2l2-70c2-84-10-123-109-334c-40-85-83-184-95-222c-22-65-23-68-5-96c25-42,62-68,116-83c32-9,51-10,63-3
		c12,8,18,5,26-11c6-12,20-22,32-24c17-3,32,12,72,71c27,41,64,86,82,101c36,31,109,70,116,63c10-10-38-100-95-180
		c-33-45-66-95-75-112c-12-24-37-120-37-140c0-3,173-5,384-5h383l7,46C10586,3833,10544,4102,10473,4245z M9545,3958
		c-16-2-19,2-17,22c4,41,62,71,62,32C9590,3987,9569,3962,9545,3958z M9813,4320c-29-32-46-42-73-43c-51-3-53,32-6,79
		c30,30,41,35,72,32c21-2,39-8,41-15C9850,4366,9834,4342,9813,4320z M10438,3705c-21,8-28,36-28,121c0,94-24,231-54,304
		c-54,132-164,251-266,287c-48,17-63,36-37,46c20,9,31,8,85-8c104-31,244-197,294-350c30-91,48-205,48-304
		C10480,3729,10465,3695,10438,3705z"/>
	<path class="st0" d="M9590,4012c0-25-21-50-45-54c-16-2-19,2-17,22C9532,4021,9590,4051,9590,4012z"/>
	<path class="st0" d="M9813,4320c-29-32-46-42-73-43c-51-3-53,32-6,79c30,30,41,35,72,32c21-2,39-8,41-15
		C9850,4366,9834,4342,9813,4320z"/>
	<path class="st0" d="M10480,3801c0-72-15-106-42-96c-21,8-28,36-28,121c0,94-24,231-54,304c-54,132-164,251-266,287
		c-48,17-63,36-37,46c20,9,31,8,85-8c104-31,244-197,294-350C10462,4014,10480,3900,10480,3801z"/>
	<path d="M12308,4669c-68-35-91-101-64-178c9-24,15-45,14-46c-2-1-20-11-40-24c-67-40-97-146-64-224c7-18,28-45,46-61
		c26-22,30-29,19-36c-50-28-122-92-148-130c-47-70-63-125-68-242l-6-108h393h393l-6,108c-4,73-12,125-27,164c-25,67-93,147-156,184
		c-24,14-44,28-44,31s12,14,26,26c31,24,63,90,64,131c0,53-23,106-60,140c-21,18-43,35-50,38c-11,3-11,11-2,38c7,18,12,52,12,76
		C12540,4660,12411,4724,12308,4669z"/>
	<path d="M5750,3721v64l-180,180v361l140,138v86c0,77-2,89-23,108c-19,18-35,22-93,22c-75,0-94-9-94-47c0-20-5-23-35-23s-35,3-35,23
		c0,41-17,47-130,47s-130-6-130-47c0-20-5-23-35-23c-27,0-35,4-35,18c0,36-32,52-101,52c-58,0-68-3-92-28c-24-25-27-35-27-103v-75
		l150-148v-351l-190-190v-66c0-106-33-99,457-99C5784,3620,5750,3612,5750,3721z M5500,3950h-410v60h410V3950z M5500,4270l-202,2
		l-203,3l-3,33l-3,32h411V4270z"/>
	<rect x="5274.5" y="3977" class="st0" width="41" height="6"/>
	<polygon class="st0" points="5500,4340 5500,4270 5298,4272 5095,4275 5092,4308 5089,4340 	"/>
	<path d="M8231,1757c-43,59-81,73-193,71c-100-3-220,19-183,33c11,4,35,13,53,19c50,19,54,37,31,120l-21,73l21,26
		c43,55,73,114,84,166c9,46,8,63-7,112c-27,86-120,173-254,240c-2,1,3,12,11,25c50,80,8,172-84,183c-19,2-48,0-65-5
		c-49-15-77-53-77-104c0-25,7-56,17-71s16-27,14-28c-183-91-283-220-262-341c8-49,43-121,80-165l26-32l-16-64c-9-35-16-73-16-84
		c0-29,26-50,78-63l47-12l-50-14c-29-8-93-14-154-13c-119,0-141-8-195-70l-35-41l38-57c21-31,48-65,60-75c19-18,22-18,39-3
		c11,10,61,21,147,32c152,19,215,36,267,70l37,25l36-21c53-32,118-49,258-69c78-11,138-25,154-36l27-17l40,45c23,25,49,59,58,75
		C8259,1717,8259,1718,8231,1757z M7710,2740c11-11,20-27,20-35c0-21-36-55-58-55c-30,0-54,25-54,55C7618,2756,7673,2777,7710,2740z
		 M7396,2376c39,83,202,204,273,204c14,0,44-9,66-19c63-29,162-107,191-151c50-76,38-187-25-224c-63-36-378-40-454-5
		C7391,2207,7364,2309,7396,2376z M7865,2105l-3-35l-4-35h-376l-4,35l-3,35H7865z M7469,1963c25,25,345,32,390,7c28-14,27-36-1-43
		c-44-11-275-20-332-13C7468,1922,7446,1940,7469,1963z M8149,1688c-10-18-17-19-87-13c-202,17-319,49-366,100l-24,26l-26-26
		c-34-34-96-61-171-74c-108-18-263-33-274-26c-6,3-11,17-11,31c0,36,43,50,170,57c131,8,171,19,240,68c30,21,62,39,71,39
		c8,0,38-16,65-35c67-48,118-62,264-74c108-9,127-13,142-32C8156,1713,8157,1704,8149,1688z"/>
	<polygon class="st0" points="7865,2105 7862,2070 7858,2035 7482,2035 7478,2070 7475,2105 	"/>
	<path class="st0" d="M7858,1927c-44-11-275-20-332-13c-58,8-80,26-57,49c25,25,345,32,390,7C7887,1956,7886,1934,7858,1927z"/>
	<path class="st0" d="M8149,1688c-10-18-17-19-87-13c-202,17-319,49-366,100l-24,26l-26-26c-34-34-96-61-171-74
		c-108-18-263-33-274-26c-6,3-11,17-11,31c0,36,43,50,170,57c131,8,171,19,240,68c30,21,62,39,71,39c8,0,38-16,65-35
		c67-48,118-62,264-74c108-9,127-13,142-32C8156,1713,8157,1704,8149,1688z"/>
	<path class="st0" d="M7926,2410c-29,44-128,122-191,151c-22,10-52,19-66,19c-71,0-234-121-273-204c-32-67-5-169,51-195
		c76-35,391-31,454,5C7964,2223,7976,2334,7926,2410z M7768,2357c-3-28-7-32-35-35c-31-3-33-6-33-43c0-37-2-39-30-39s-30,2-30,40
		c0,38-2,40-30,40s-30,3-30,34c0,30,3,35,28,38c23,3,27,8,30,41c3,33,6,37,32,37c26,0,29-4,32-37c3-35,6-38,36-41
		C7769,2389,7771,2386,7768,2357z"/>
	<path class="st0" d="M7730,2705c0-21-36-55-58-55c-30,0-54,25-54,55c0,51,55,72,92,35C7721,2729,7730,2713,7730,2705z"/>
	<path d="M7768,2357c-3-28-7-32-35-35c-31-3-33-6-33-43c0-37-2-39-30-39s-30,2-30,40c0,38-2,40-30,40s-30,3-30,34c0,30,3,35,28,38
		c23,3,27,8,30,41c3,33,6,37,32,37c26,0,29-4,32-37c3-35,6-38,36-41C7769,2389,7771,2386,7768,2357z"/>
	<path d="M1067,2378c-77,81-187,99-287,46c-30-16-58-30-62-32c-5-2-8,22-8,53c0,53-2,58-45,99c-55,54-57,77-10,106
		c29,18,35,28,35,56c0,32-2,34-34,34c-30,0-36,4-46,35c-9,27-17,35-36,35c-19,0-29-8-39-34c-12-28-21-35-47-38c-29-3-33-7-36-35
		c-3-29,1-34,37-53c47-23,56-61,21-80c-40-21-80-90-80-137c0-40-11-55-24-34c-15,23-99,51-155,51c-122,0-207-67-225-176
		c-12-67,2-108,74-219c70-108,84-145,99-271c5-39,14-80,20-91c15-30,85-59,173-73c105-17,363-8,437,15c82,25,106,55,114,140
		c11,109,32,171,86,253c67,103,91,158,91,214C1120,2302,1107,2337,1067,2378z M543,2510c30,12,32,12,61-1c29-13,46-55,46-110
		c0-38-55-159-75-166c-6-2-25,23-43,56C483,2379,488,2488,543,2510z M210,2009l-46,63c-78,106-92,164-54,237c17,34,38,50,100,75
		c24,9,84,0,124-19c99-47,192-176,198-275l3-45l-55-11c-30-6-103-14-162-18L210,2009z M810,1695c-23-14-265-24-359-15
		c-133,13-158,25-109,51c46,25,351,30,441,8C819,1730,832,1708,810,1695z M878,1795c-2-2-34,4-73,13c-123,28-403,21-520-13
		c-18-6-21,1-32,67c-6,40-10,74-9,76c2,1,57,7,122,13c65,6,137,15,159,19c22,5,49,6,60,4c11-3,85-11,163-19c79-7,146-16,149-18
		C902,1932,884,1801,878,1795z M984,2075l-47-64l-61,4c-34,3-95,7-137,10c-42,2-89,9-104,15c-26,10-27,14-22,56c7,65,60,167,110,210
		c52,45,132,84,172,84c17,0,48-9,71-19c49-22,81-64,90-118C1064,2204,1046,2159,984,2075z"/>
	<path class="st0" d="M650,2399c0-38-55-159-75-166c-6-2-25,23-43,56c-49,90-44,199,11,221c30,12,32,12,61-1
		C633,2496,650,2454,650,2399z"/>
	<path class="st0" d="M535,2045l-55-11c-30-6-103-14-162-18l-108-7l-46,63c-78,106-92,164-54,237c17,34,38,50,100,75
		c24,9,84,0,124-19c99-47,192-176,198-275L535,2045z"/>
	<path class="st0" d="M984,2075l-47-64l-61,4c-34,3-95,7-137,10c-42,2-89,9-104,15c-26,10-27,14-22,56c7,65,60,167,110,210
		c52,45,132,84,172,84c17,0,48-9,71-19c49-22,81-64,90-118C1064,2204,1046,2159,984,2075z"/>
	<path class="st0" d="M878,1795c-2-2-34,4-73,13c-123,28-403,21-520-13c-18-6-21,1-32,67c-6,40-10,74-9,76c2,1,57,7,122,13
		c65,6,137,15,159,19c22,5,49,6,60,4c11-3,85-11,163-19c79-7,146-16,149-18C902,1932,884,1801,878,1795z"/>
	<path class="st0" d="M810,1695c-23-14-265-24-359-15c-133,13-158,25-109,51c46,25,351,30,441,8C819,1730,832,1708,810,1695z"/>
	<path d="M3567,2521c-10,77-87,121-145,83c-45-29-52-45-51-120c2-79-15-121-74-192c-33-39-35-40-41-19c-10,38-7,182,5,218
		c7,19,25,52,40,73c38,52,38,96,1,137c-24,26-36,32-72,32c-37,0-48-5-73-33c-28-32-29-36-23-100c7-78-15-179-62-286
		c-34-76-33-76-57,60c-20,116-19,147,6,241c17,65,18,83,8,107c-27,65-109,80-160,29c-33-34-36-60-13-122c21-57,21-198-1-298
		c-8-41-17-76-19-78c-5-5-65,151-81,214c-11,41-14,79-9,129c6,65,4,72-20,101c-63,75-176,36-176-62c0-35,6-51,31-79
		c16-19,34-50,40-68c10-37,12-144,3-201l-7-38l-28,33c-66,75-83,117-81,191c2,80-14,119-57,137c-65,26-141-26-141-97
		c0-28,8-44,39-75c32-31,42-51,51-96c6-31,23-110,37-176c24-107,31-122,68-165c91-102,97-121,66-193c-28-65-35-119-18-142
		c21-29,123-46,322-53c190-6,361,7,422,32c34,14,38,25,33,90c-1,16-11,46-21,67c-35,69-28,89,67,206c43,52,65,124,99,316
		c11,63,17,76,55,114C3569,2477,3572,2483,3567,2521z M2430,2475c-37-12-60,3-60,40c0,18,6,36,13,38c22,9,43,7,55-5
		C2458,2528,2453,2482,2430,2475z M3200,2660c23,23,30,24,54,7c12-9,17-23,14-42c-3-27-7-30-37-30C3187,2595,3170,2630,3200,2660z
		 M2945,2728c25-3,30-8,33-34c4-38-18-59-53-50c-20,5-25,12-25,40C2900,2725,2907,2732,2945,2728z M2613,2606c-17,24-17,30,7,54
		s30,24,54,7c12-9,17-23,14-42c-2-25-8-31-33-33C2636,2589,2622,2594,2613,2606z M3218,1709c-52-28-429-33-530-8c-39,10-52,39-26,55
		c38,24,471,27,535,4C3237,1746,3246,1724,3218,1709z M3216,1855v-31l-50,7c-28,4-130,8-226,8s-198-4-226-8l-50-7v31c1,16-3,42-7,57
		c-7,26-6,27,40,31c86,6,397,7,465,0c67-6,68-6,60-32C3218,1897,3215,1871,3216,1855z M2940,2013c-176,0-320,3-320,8
		c0,13,43,39,85,51c22,6,76,14,120,18s82,8,85,8c3,1,57-3,120-8c63-6,133-15,155-21c38-10,75-34,75-49
		C3260,2017,3116,2014,2940,2013z M3406,2303c-3-10-13-52-22-93c-15-71-38-130-50-130c-2,0-23,10-46,21c-150,77-516,78-685,3
		c-41-18-59-21-69-13c-7,5-22,52-34,102c-11,51-23,99-26,109c-3,9,36-25,86-75c50-49,93-87,96-84c11,11,34,169,34,237
		c0,46,3,61,10,50c5-8,10-21,10-27c0-24,60-140,97-188l36-48l18,24c21,27,69,168,69,203c0,54,15,30,36-57c22-92,58-172,74-162
		c19,12,83,118,115,190l35,80v-65c0-68,23-226,34-237c3-3,47,35,97,86C3371,2279,3409,2312,3406,2303z M3469,2470c-21,0-49,26-49,45
		c0,35,53,58,78,33C3525,2521,3505,2470,3469,2470z"/>
	<path class="st0" d="M2430,2475c-37-12-60,3-60,40c0,18,6,36,13,38c22,9,43,7,55-5C2458,2528,2453,2482,2430,2475z"/>
	<path class="st0" d="M2688,2625c-2-25-8-31-33-33c-19-3-33,2-42,14c-17,24-17,30,7,54s30,24,54,7C2686,2658,2691,2644,2688,2625z"
		/>
	<path class="st0" d="M2925,2644c-20,5-25,12-25,40c0,41,7,48,45,44c25-3,30-8,33-34C2982,2656,2960,2635,2925,2644z"/>
	<path class="st0" d="M3469,2470c-21,0-49,26-49,45c0,35,53,58,78,33C3525,2521,3505,2470,3469,2470z"/>
	<path class="st0" d="M3268,2625c-3-27-7-30-37-30c-44,0-61,35-31,65c23,23,30,24,54,7C3266,2658,3271,2644,3268,2625z"/>
	<path class="st0" d="M3406,2303c-3-10-13-52-22-93c-15-71-38-130-50-130c-2,0-23,10-46,21c-150,77-516,78-685,3c-41-18-59-21-69-13
		c-7,5-22,52-34,102c-11,51-23,99-26,109c-3,9,36-25,86-75c50-49,93-87,96-84c11,11,34,169,34,237c0,46,3,61,10,50c5-8,10-21,10-27
		c0-24,60-140,97-188l36-48l18,24c21,27,69,168,69,203c0,54,15,30,36-57c22-92,58-172,74-162c19,12,83,118,115,190l35,80v-65
		c0-68,23-226,34-237c3-3,47,35,97,86C3371,2279,3409,2312,3406,2303z"/>
	<path class="st0" d="M3260,2020c0-3-144-6-320-7c-176,0-320,3-320,8c0,13,43,39,85,51c22,6,76,14,120,18s82,8,85,8c3,1,57-3,120-8
		c63-6,133-15,155-21C3223,2059,3260,2035,3260,2020z"/>
	<path class="st0" d="M3222,1911c-4-14-7-40-6-56v-31l-50,7c-28,4-130,8-226,8s-198-4-226-8l-50-7v31c1,16-3,42-7,57
		c-7,26-6,27,40,31c86,6,397,7,465,0C3229,1937,3230,1937,3222,1911z"/>
	<path class="st0" d="M3218,1709c-52-28-429-33-530-8c-39,10-52,39-26,55c38,24,471,27,535,4C3237,1746,3246,1724,3218,1709z"/>
	<path d="M5760,1706v59l-190,194v359l80,68l80,69v86c0,80-2,87-28,112c-25,24-35,27-103,27c-84,0-122-20-112-60c5-17,1-20-26-20
		c-26,0-31,4-31,23c0,45-28,57-132,57c-103,0-128-12-128-58c0-17-6-22-25-22c-20,0-25,5-25,23c0,43-29,57-116,57c-75,0-82-2-107-28
		c-25-26-27-35-27-109v-81l79-69l80-68v-185l1-185l-180-180v-70c0-42,5-76,12-83c9-9,120-12,438-12C5793,1610,5760,1603,5760,1706z
		 M4995,2428c-59,48-60,50-60,98c1,27,4,55,9,62c4,7,29,12,62,12c50,0,54-2,54-23c0-36,19-47,81-47c76,0,89,6,89,41v29h70
		c66,0,70-1,70-23c0-37,19-47,92-47c58,0,69,3,78,21c7,11,9,27,6,35c-4,11,7,14,53,14c67,0,71-5,71-78c0-45-2-49-60-94l-59-48h-496
		L4995,2428z M5510,2310v-320l-206,2l-205,3l-2,158l-2,157H5510z M5030,1875l54,55h440l53-52c29-29,53-55,53-58s-147-4-327-2l-327,3
		L5030,1875z M5700,1680h-790v70h790V1680z"/>
	<rect x="5265.5" y="1711.5" class="st0" width="79" height="7"/>
	<path class="st0" d="M5630,1820c0-3-147-4-327-2l-327,3l54,54l54,55h440l53-52C5606,1849,5630,1823,5630,1820z"/>
	<polygon class="st0" points="5510,2310 5510,1990 5304,1992 5099,1995 5097,2153 5095,2310 	"/>
	<path class="st0" d="M5670,2522c0-45-2-49-60-94l-59-48h-496l-60,48c-59,48-60,50-60,98c1,27,4,55,9,62c4,7,29,12,62,12
		c50,0,54-2,54-23c0-36,19-47,81-47c76,0,89,6,89,41v29h70c66,0,70-1,70-23c0-37,19-47,92-47c58,0,69,3,78,21c7,11,9,27,6,35
		c-4,11,7,14,53,14C5666,2600,5670,2595,5670,2522z"/>
	<path d="M10530,2075c-38,147-120,289-217,375c-64,56-114,81-179,87c-50,5-54,8-65,40c-14,44-66,103-89,103c-10,0-29-13-43-30
		c-14-16-27-34-29-40c-2-7-23-2-56,15c-28,14-75,29-103,32l-51,6l7-61c8-70-6-130-59-244c-94-205-135-298-150-345l-18-53l29-40
		c32-45,84-74,120-67c17,3,32-3,49-20c39-39,71-28,116,37c21,30,55,72,76,93c38,40,119,93,128,84c12-12-14-66-81-167
		c-73-108-115-199-115-245v-25h758l7,73C10574,1777,10556,1972,10530,2075z M9802,2584l32-16l-25-14c-37-21-49-17-49,16
		C9760,2605,9761,2605,9802,2584z M10191,1678c-240-2-301,0-301,10c0,19,37,88,89,167c70,105,91,159,91,235c0,25,11,82,24,126
		c26,87,25,109-5,94c-25-14-65-85-79-140c-10-40-17-49-57-70c-61-32-138-104-188-174c-43-59-62-66-57-21c3,26,1,27-25,21
		c-76-19-88-18-116,10c-22,21-27,34-22,53c3,15,48,114,99,221c51,107,99,209,106,227c10,26,23,36,67,53c88,33,133,59,145,85
		c14,31,23,25,38-23c30-96,25-92,103-92c53,0,78-5,103-21c55-34,146-142,191-225c65-122,84-203,90-381l6-152L10191,1678z"/>
	<path class="st0" d="M9834,2568l-25-14c-37-21-49-17-49,16c0,35,1,35,42,14L9834,2568z"/>
	<path class="st0" d="M10487,1833c-6,178-25,259-90,381c-45,83-136,191-191,225c-25,16-50,21-103,21c-78,0-73-4-103,92
		c-15,48-24,54-38,23c-12-26-57-52-145-85c-44-17-57-27-67-53c-7-18-55-120-106-227c-51-107-96-206-99-221c-5-19,0-32,22-53
		c28-28,40-29,116-10c26,6,28,5,25-21c-5-45,14-38,57,21c50,70,127,142,188,174c40,21,47,30,57,70c14,55,54,126,79,140
		c30,15,31-7,5-94c-13-44-24-101-24-126c0-76-21-130-91-235c-52-79-89-148-89-167c0-10,61-12,301-10l302,3L10487,1833z M9597,1962
		c-27,4-34,39-12,62c20,20,29,20,45,1C9650,2001,9627,1958,9597,1962z M9807,2285c-50-29-75-32-83-10c-11,28,6,65,39,85
		c35,22,82,26,92,9C9870,2346,9848,2310,9807,2285z"/>
	<path d="M9807,2285c-50-29-75-32-83-10c-11,28,6,65,39,85c35,22,82,26,92,9C9870,2346,9848,2310,9807,2285z"/>
	<path d="M9597,1962c-27,4-34,39-12,62c20,20,29,20,45,1C9650,2001,9627,1958,9597,1962z"/>
	<path d="M12797,1713c-3,56-13,125-22,153c-24,71-79,140-150,188l-61,41l42,40c47,45,60,87,49,160c-6,45-51,104-98,130
		c-17,9-17,13-2,57c42,121-69,226-199,188c-77-23-116-103-91-186c13-43,13-49-1-57c-39-22-84-71-95-104c-24-72,7-175,63-207l31-19
		l-34-17c-51-27-126-97-154-144c-33-56-55-155-55-248v-78h783L12797,1713z M12087,1680l5,70c9,121,54,187,198,293
		c58,43,62,67,15,104c-92,71-86,168,14,239c44,32,51,59,26,104c-37,65,8,141,73,124c8-2,18-4,23-4c18,0,49-40,49-64c0-13-9-43-19-66
		c-11-24-17-49-14-56c2-7,22-24,44-39c52-34,79-79,79-133c0-45-17-68-88-125c-29-23-17-47,46-90c129-89,181-168,190-287l5-70H12087z
		"/>
	<path class="st0" d="M12733,1680h-646l5,70c9,121,54,187,198,293c58,43,62,67,15,104c-92,71-86,168,14,239c44,32,51,59,26,104
		c-37,65,8,141,73,124c8-2,18-4,23-4c18,0,49-40,49-64c0-13-9-43-19-66c-11-24-17-49-14-56c2-7,22-24,44-39c52-34,79-79,79-133
		c0-45-17-68-88-125c-29-23-17-47,46-90c129-89,181-168,190-287L12733,1680z"/>
</g>
</svg>
